<svg xmlns="http://www.w3.org/2000/svg" width="800" height="600" viewBox="0 0 800 600"><line x1="184.0" y1="126.7" x2="376.0" y2="40.0" stroke="#666666" stroke-width="1.5"/><line x1="520.0" y1="126.7" x2="376.0" y2="40.0" stroke="#666666" stroke-width="1.5"/><line x1="232.0" y1="213.3" x2="184.0" y2="126.7" stroke="#666666" stroke-width="1.5"/><line x1="232.0" y1="213.3" x2="520.0" y2="126.7" stroke="#666666" stroke-width="1.5"/><line x1="280.0" y1="126.7" x2="376.0" y2="40.0" stroke="#666666" stroke-width="1.5"/><line x1="136.0" y1="213.3" x2="184.0" y2="126.7" stroke="#666666" stroke-width="1.5"/><line x1="136.0" y1="213.3" x2="280.0" y2="126.7" stroke="#666666" stroke-width="1.5"/><line x1="472.0" y1="213.3" x2="520.0" y2="126.7" stroke="#666666" stroke-width="1.5"/><line x1="472.0" y1="213.3" x2="280.0" y2="126.7" stroke="#666666" stroke-width="1.5"/><line x1="232.0" y1="300.0" x2="232.0" y2="213.3" stroke="#666666" stroke-width="1.5"/><line x1="232.0" y1="300.0" x2="136.0" y2="213.3" stroke="#666666" stroke-width="1.5"/><line x1="232.0" y1="300.0" x2="472.0" y2="213.3" stroke="#666666" stroke-width="1.5"/><line x1="328.0" y1="126.7" x2="376.0" y2="40.0" stroke="#666666" stroke-width="1.5"/><line x1="40.0" y1="213.3" x2="184.0" y2="126.7" stroke="#666666" stroke-width="1.5"/><line x1="40.0" y1="213.3" x2="328.0" y2="126.7" stroke="#666666" stroke-width="1.5"/><line x1="568.0" y1="213.3" x2="520.0" y2="126.7" stroke="#666666" stroke-width="1.5"/><line x1="568.0" y1="213.3" x2="328.0" y2="126.7" stroke="#666666" stroke-width="1.5"/><line x1="280.0" y1="213.3" x2="280.0" y2="126.7" stroke="#666666" stroke-width="1.5"/><line x1="280.0" y1="213.3" x2="328.0" y2="126.7" stroke="#666666" stroke-width="1.5"/><line x1="424.0" y1="300.0" x2="472.0" y2="213.3" stroke="#666666" stroke-width="1.5"/><line x1="424.0" y1="300.0" x2="568.0" y2="213.3" stroke="#666666" stroke-width="1.5"/><line x1="424.0" y1="300.0" x2="280.0" y2="213.3" stroke="#666666" stroke-width="1.5"/><line x1="280.0" y1="386.7" x2="232.0" y2="300.0" stroke="#666666" stroke-width="1.5"/><line x1="280.0" y1="386.7" x2="40.0" y2="213.3" stroke="#666666" stroke-width="1.5"/><line x1="280.0" y1="386.7" x2="424.0" y2="300.0" stroke="#666666" stroke-width="1.5"/><line x1="376.0" y1="126.7" x2="376.0" y2="40.0" stroke="#666666" stroke-width="1.5"/><line x1="156.0" y1="233.3" x2="184.0" y2="126.7" stroke="#666666" stroke-width="1.5"/><line x1="156.0" y1="233.3" x2="376.0" y2="126.7" stroke="#666666" stroke-width="1.5"/><line x1="664.0" y1="213.3" x2="520.0" y2="126.7" stroke="#666666" stroke-width="1.5"/><line x1="664.0" y1="213.3" x2="376.0" y2="126.7" stroke="#666666" stroke-width="1.5"/><line x1="184.0" y1="213.3" x2="280.0" y2="126.7" stroke="#666666" stroke-width="1.5"/><line x1="184.0" y1="213.3" x2="376.0" y2="126.7" stroke="#666666" stroke-width="1.5"/><line x1="136.0" y1="300.0" x2="136.0" y2="213.3" stroke="#666666" stroke-width="1.5"/><line x1="136.0" y1="300.0" x2="156.0" y2="233.3" stroke="#666666" stroke-width="1.5"/><line x1="136.0" y1="300.0" x2="184.0" y2="213.3" stroke="#666666" stroke-width="1.5"/><line x1="376.0" y1="213.3" x2="328.0" y2="126.7" stroke="#666666" stroke-width="1.5"/><line x1="376.0" y1="213.3" x2="376.0" y2="126.7" stroke="#666666" stroke-width="1.5"/><line x1="156.0" y1="320.0" x2="40.0" y2="213.3" stroke="#666666" stroke-width="1.5"/><line x1="156.0" y1="320.0" x2="156.0" y2="233.3" stroke="#666666" stroke-width="1.5"/><line x1="156.0" y1="320.0" x2="376.0" y2="213.3" stroke="#666666" stroke-width="1.5"/><line x1="280.0" y1="300.0" x2="280.0" y2="213.3" stroke="#666666" stroke-width="1.5"/><line x1="280.0" y1="300.0" x2="184.0" y2="213.3" stroke="#666666" stroke-width="1.5"/><line x1="280.0" y1="300.0" x2="376.0" y2="213.3" stroke="#666666" stroke-width="1.5"/><line x1="376.0" y1="473.3" x2="280.0" y2="386.7" stroke="#666666" stroke-width="1.5"/><line x1="376.0" y1="473.3" x2="664.0" y2="213.3" stroke="#666666" stroke-width="1.5"/><line x1="376.0" y1="473.3" x2="136.0" y2="300.0" stroke="#666666" stroke-width="1.5"/><line x1="376.0" y1="473.3" x2="156.0" y2="320.0" stroke="#666666" stroke-width="1.5"/><line x1="376.0" y1="473.3" x2="280.0" y2="300.0" stroke="#666666" stroke-width="1.5"/><line x1="568.0" y1="126.7" x2="376.0" y2="40.0" stroke="#666666" stroke-width="1.5"/><line x1="424.0" y1="213.3" x2="184.0" y2="126.7" stroke="#666666" stroke-width="1.5"/><line x1="424.0" y1="213.3" x2="568.0" y2="126.7" stroke="#666666" stroke-width="1.5"/><line x1="712.0" y1="213.3" x2="520.0" y2="126.7" stroke="#666666" stroke-width="1.5"/><line x1="712.0" y1="213.3" x2="568.0" y2="126.7" stroke="#666666" stroke-width="1.5"/><line x1="520.0" y1="213.3" x2="280.0" y2="126.7" stroke="#666666" stroke-width="1.5"/><line x1="520.0" y1="213.3" x2="568.0" y2="126.7" stroke="#666666" stroke-width="1.5"/><line x1="376.0" y1="300.0" x2="136.0" y2="213.3" stroke="#666666" stroke-width="1.5"/><line x1="376.0" y1="300.0" x2="424.0" y2="213.3" stroke="#666666" stroke-width="1.5"/><line x1="376.0" y1="300.0" x2="520.0" y2="213.3" stroke="#666666" stroke-width="1.5"/><line x1="520.0" y1="300.0" x2="472.0" y2="213.3" stroke="#666666" stroke-width="1.5"/><line x1="520.0" y1="300.0" x2="712.0" y2="213.3" stroke="#666666" stroke-width="1.5"/><line x1="520.0" y1="300.0" x2="520.0" y2="213.3" stroke="#666666" stroke-width="1.5"/><line x1="376.0" y1="386.7" x2="232.0" y2="300.0" stroke="#666666" stroke-width="1.5"/><line x1="376.0" y1="386.7" x2="376.0" y2="300.0" stroke="#666666" stroke-width="1.5"/><line x1="376.0" y1="386.7" x2="520.0" y2="300.0" stroke="#666666" stroke-width="1.5"/><line x1="616.0" y1="213.3" x2="328.0" y2="126.7" stroke="#666666" stroke-width="1.5"/><line x1="616.0" y1="213.3" x2="568.0" y2="126.7" stroke="#666666" stroke-width="1.5"/><line x1="616.0" y1="300.0" x2="568.0" y2="213.3" stroke="#666666" stroke-width="1.5"/><line x1="616.0" y1="300.0" x2="712.0" y2="213.3" stroke="#666666" stroke-width="1.5"/><line x1="616.0" y1="300.0" x2="616.0" y2="213.3" stroke="#666666" stroke-width="1.5"/><line x1="568.0" y1="386.7" x2="424.0" y2="300.0" stroke="#666666" stroke-width="1.5"/><line x1="568.0" y1="386.7" x2="520.0" y2="300.0" stroke="#666666" stroke-width="1.5"/><line x1="568.0" y1="386.7" x2="616.0" y2="300.0" stroke="#666666" stroke-width="1.5"/><line x1="472.0" y1="473.3" x2="280.0" y2="386.7" stroke="#666666" stroke-width="1.5"/><line x1="472.0" y1="473.3" x2="376.0" y2="386.7" stroke="#666666" stroke-width="1.5"/><line x1="472.0" y1="473.3" x2="568.0" y2="386.7" stroke="#666666" stroke-width="1.5"/><line x1="760.0" y1="213.3" x2="376.0" y2="126.7" stroke="#666666" stroke-width="1.5"/><line x1="760.0" y1="213.3" x2="568.0" y2="126.7" stroke="#666666" stroke-width="1.5"/><line x1="760.0" y1="300.0" x2="664.0" y2="213.3" stroke="#666666" stroke-width="1.5"/><line x1="760.0" y1="300.0" x2="712.0" y2="213.3" stroke="#666666" stroke-width="1.5"/><line x1="760.0" y1="300.0" x2="760.0" y2="213.3" stroke="#666666" stroke-width="1.5"/><line x1="472.0" y1="386.7" x2="136.0" y2="300.0" stroke="#666666" stroke-width="1.5"/><line x1="472.0" y1="386.7" x2="376.0" y2="300.0" stroke="#666666" stroke-width="1.5"/><line x1="472.0" y1="386.7" x2="760.0" y2="213.3" stroke="#666666" stroke-width="1.5"/><line x1="664.0" y1="300.0" x2="376.0" y2="213.3" stroke="#666666" stroke-width="1.5"/><line x1="664.0" y1="300.0" x2="616.0" y2="213.3" stroke="#666666" stroke-width="1.5"/><line x1="664.0" y1="300.0" x2="760.0" y2="213.3" stroke="#666666" stroke-width="1.5"/><line x1="472.0" y1="560.0" x2="376.0" y2="473.3" stroke="#666666" stroke-width="1.5"/><line x1="472.0" y1="560.0" x2="472.0" y2="473.3" stroke="#666666" stroke-width="1.5"/><line x1="472.0" y1="560.0" x2="760.0" y2="300.0" stroke="#666666" stroke-width="1.5"/><line x1="472.0" y1="560.0" x2="472.0" y2="386.7" stroke="#666666" stroke-width="1.5"/><line x1="472.0" y1="560.0" x2="664.0" y2="300.0" stroke="#666666" stroke-width="1.5"/><g transform="translate(376.0,40.0)"><circle r="8" fill="#ffffff" stroke="#333333" stroke-width="2"/><text dy="-12" text-anchor="middle" font-size="12" font-family="sans-serif">AZ_2011, GR_2005, IE_1992, IE_1993, NO_1985, RS_2007</text><text dy="20" text-anchor="middle" font-size="12" font-family="sans-serif"></text></g><g transform="translate(184.0,126.7)"><circle r="8" fill="#ffffff" stroke="#333333" stroke-width="2"/><text dy="-12" text-anchor="middle" font-size="12" font-family="sans-serif">DK_2013</text><text dy="20" text-anchor="middle" font-size="12" font-family="sans-serif">Western Europe</text></g><g transform="translate(520.0,126.7)"><circle r="8" fill="#ffffff" stroke="#333333" stroke-width="2"/><text dy="-12" text-anchor="middle" font-size="12" font-family="sans-serif">CH_1988, IL_1998, IT_1990</text><text dy="20" text-anchor="middle" font-size="12" font-family="sans-serif">Southern Europe</text></g><g transform="translate(232.0,213.3)"><circle r="8" fill="#ffffff" stroke="#333333" stroke-width="2"/><text dy="-12" text-anchor="middle" font-size="12" font-family="sans-serif">IE_1987</text><text dy="20" text-anchor="middle" font-size="12" font-family="sans-serif"></text></g><g transform="translate(280.0,126.7)"><circle r="8" fill="#ffffff" stroke="#333333" stroke-width="2"/><text dy="-12" text-anchor="middle" font-size="12" font-family="sans-serif">DE_2010, IL_1979, SE_1984, SE_1991, SE_1999</text><text dy="20" text-anchor="middle" font-size="12" font-family="sans-serif">Northern Europe</text></g><g transform="translate(136.0,213.3)"><circle r="8" fill="#ffffff" stroke="#333333" stroke-width="2"/><text dy="-12" text-anchor="middle" font-size="12" font-family="sans-serif">FI_2006, IE_1980, NL_2019, SE_2012</text><text dy="20" text-anchor="middle" font-size="12" font-family="sans-serif"></text></g><g transform="translate(472.0,213.3)"><circle r="8" fill="#ffffff" stroke="#333333" stroke-width="2"/><text dy="-12" text-anchor="middle" font-size="12" font-family="sans-serif"></text><text dy="20" text-anchor="middle" font-size="12" font-family="sans-serif"></text></g><g transform="translate(232.0,300.0)"><circle r="8" fill="#ffffff" stroke="#333333" stroke-width="2"/><text dy="-12" text-anchor="middle" font-size="12" font-family="sans-serif">AT_2014, EE_2001</text><text dy="20" text-anchor="middle" font-size="12" font-family="sans-serif"></text></g><g transform="translate(328.0,126.7)"><circle r="8" fill="#ffffff" stroke="#333333" stroke-width="2"/><text dy="-12" text-anchor="middle" font-size="12" font-family="sans-serif">FR_1977, IE_1996, NO_1995, RU_2008, YU_1989</text><text dy="20" text-anchor="middle" font-size="12" font-family="sans-serif">Near East &amp; Other</text></g><g transform="translate(40.0,213.3)"><circle r="8" fill="#ffffff" stroke="#333333" stroke-width="2"/><text dy="-12" text-anchor="middle" font-size="12" font-family="sans-serif">IL_1978</text><text dy="20" text-anchor="middle" font-size="12" font-family="sans-serif"></text></g><g transform="translate(568.0,213.3)"><circle r="8" fill="#ffffff" stroke="#333333" stroke-width="2"/><text dy="-12" text-anchor="middle" font-size="12" font-family="sans-serif"></text><text dy="20" text-anchor="middle" font-size="12" font-family="sans-serif"></text></g><g transform="translate(280.0,213.3)"><circle r="8" fill="#ffffff" stroke="#333333" stroke-width="2"/><text dy="-12" text-anchor="middle" font-size="12" font-family="sans-serif"></text><text dy="20" text-anchor="middle" font-size="12" font-family="sans-serif"></text></g><g transform="translate(424.0,300.0)"><circle r="8" fill="#ffffff" stroke="#333333" stroke-width="2"/><text dy="-12" text-anchor="middle" font-size="12" font-family="sans-serif"></text><text dy="20" text-anchor="middle" font-size="12" font-family="sans-serif"></text></g><g transform="translate(280.0,386.7)"><circle r="8" fill="#ffffff" stroke="#333333" stroke-width="2"/><text dy="-12" text-anchor="middle" font-size="12" font-family="sans-serif"></text><text dy="20" text-anchor="middle" font-size="12" font-family="sans-serif"></text></g><g transform="translate(376.0,126.7)"><circle r="8" fill="#ffffff" stroke="#333333" stroke-width="2"/><text dy="-12" text-anchor="middle" font-size="12" font-family="sans-serif"></text><text dy="20" text-anchor="middle" font-size="12" font-family="sans-serif">Eastern Europe</text></g><g transform="translate(156.0,233.3)"><circle r="8" fill="#ffffff" stroke="#333333" stroke-width="2"/><text dy="-12" text-anchor="middle" font-size="12" font-family="sans-serif">LV_2002</text><text dy="20" text-anchor="middle" font-size="12" font-family="sans-serif"></text></g><g transform="translate(664.0,213.3)"><circle r="8" fill="#ffffff" stroke="#333333" stroke-width="2"/><text dy="-12" text-anchor="middle" font-size="12" font-family="sans-serif"></text><text dy="20" text-anchor="middle" font-size="12" font-family="sans-serif"></text></g><g transform="translate(184.0,213.3)"><circle r="8" fill="#ffffff" stroke="#333333" stroke-width="2"/><text dy="-12" text-anchor="middle" font-size="12" font-family="sans-serif"></text><text dy="20" text-anchor="middle" font-size="12" font-family="sans-serif"></text></g><g transform="translate(136.0,300.0)"><circle r="8" fill="#ffffff" stroke="#333333" stroke-width="2"/><text dy="-12" text-anchor="middle" font-size="12" font-family="sans-serif">DK_2000, SE_2015</text><text dy="20" text-anchor="middle" font-size="12" font-family="sans-serif"></text></g><g transform="translate(376.0,213.3)"><circle r="8" fill="#ffffff" stroke="#333333" stroke-width="2"/><text dy="-12" text-anchor="middle" font-size="12" font-family="sans-serif"></text><text dy="20" text-anchor="middle" font-size="12" font-family="sans-serif"></text></g><g transform="translate(156.0,320.0)"><circle r="8" fill="#ffffff" stroke="#333333" stroke-width="2"/><text dy="-12" text-anchor="middle" font-size="12" font-family="sans-serif">IL_2018</text><text dy="20" text-anchor="middle" font-size="12" font-family="sans-serif"></text></g><g transform="translate(280.0,300.0)"><circle r="8" fill="#ffffff" stroke="#333333" stroke-width="2"/><text dy="-12" text-anchor="middle" font-size="12" font-family="sans-serif">UA_2004</text><text dy="20" text-anchor="middle" font-size="12" font-family="sans-serif"></text></g><g transform="translate(376.0,473.3)"><circle r="8" fill="#ffffff" stroke="#333333" stroke-width="2"/><text dy="-12" text-anchor="middle" font-size="12" font-family="sans-serif">NO_2009, SE_2023</text><text dy="20" text-anchor="middle" font-size="12" font-family="sans-serif"></text></g><g transform="translate(568.0,126.7)"><circle r="8" fill="#ffffff" stroke="#333333" stroke-width="2"/><text dy="-12" text-anchor="middle" font-size="12" font-family="sans-serif">TR_2003</text><text dy="20" text-anchor="middle" font-size="12" font-family="sans-serif">Balkans</text></g><g transform="translate(424.0,213.3)"><circle r="8" fill="#ffffff" stroke="#333333" stroke-width="2"/><text dy="-12" text-anchor="middle" font-size="12" font-family="sans-serif">AT_2025</text><text dy="20" text-anchor="middle" font-size="12" font-family="sans-serif"></text></g><g transform="translate(712.0,213.3)"><circle r="8" fill="#ffffff" stroke="#333333" stroke-width="2"/><text dy="-12" text-anchor="middle" font-size="12" font-family="sans-serif"></text><text dy="20" text-anchor="middle" font-size="12" font-family="sans-serif"></text></g><g transform="translate(520.0,213.3)"><circle r="8" fill="#ffffff" stroke="#333333" stroke-width="2"/><text dy="-12" text-anchor="middle" font-size="12" font-family="sans-serif">NL_1975</text><text dy="20" text-anchor="middle" font-size="12" font-family="sans-serif"></text></g><g transform="translate(376.0,300.0)"><circle r="8" fill="#ffffff" stroke="#333333" stroke-width="2"/><text dy="-12" text-anchor="middle" font-size="12" font-family="sans-serif"></text><text dy="20" text-anchor="middle" font-size="12" font-family="sans-serif"></text></g><g transform="translate(520.0,300.0)"><circle r="8" fill="#ffffff" stroke="#333333" stroke-width="2"/><text dy="-12" text-anchor="middle" font-size="12" font-family="sans-serif"></text><text dy="20" text-anchor="middle" font-size="12" font-family="sans-serif"></text></g><g transform="translate(376.0,386.7)"><circle r="8" fill="#ffffff" stroke="#333333" stroke-width="2"/><text dy="-12" text-anchor="middle" font-size="12" font-family="sans-serif">BE_1986</text><text dy="20" text-anchor="middle" font-size="12" font-family="sans-serif"></text></g><g transform="translate(616.0,213.3)"><circle r="8" fill="#ffffff" stroke="#333333" stroke-width="2"/><text dy="-12" text-anchor="middle" font-size="12" font-family="sans-serif">GB_1981</text><text dy="20" text-anchor="middle" font-size="12" font-family="sans-serif"></text></g><g transform="translate(616.0,300.0)"><circle r="8" fill="#ffffff" stroke="#333333" stroke-width="2"/><text dy="-12" text-anchor="middle" font-size="12" font-family="sans-serif">LU_1983</text><text dy="20" text-anchor="middle" font-size="12" font-family="sans-serif"></text></g><g transform="translate(568.0,386.7)"><circle r="8" fill="#ffffff" stroke="#333333" stroke-width="2"/><text dy="-12" text-anchor="middle" font-size="12" font-family="sans-serif">DE_1982</text><text dy="20" text-anchor="middle" font-size="12" font-family="sans-serif"></text></g><g transform="translate(472.0,473.3)"><circle r="8" fill="#ffffff" stroke="#333333" stroke-width="2"/><text dy="-12" text-anchor="middle" font-size="12" font-family="sans-serif">GB_1976</text><text dy="20" text-anchor="middle" font-size="12" font-family="sans-serif"></text></g><g transform="translate(760.0,213.3)"><circle r="8" fill="#ffffff" stroke="#333333" stroke-width="2"/><text dy="-12" text-anchor="middle" font-size="12" font-family="sans-serif"></text><text dy="20" text-anchor="middle" font-size="12" font-family="sans-serif"></text></g><g transform="translate(760.0,300.0)"><circle r="8" fill="#ffffff" stroke="#333333" stroke-width="2"/><text dy="-12" text-anchor="middle" font-size="12" font-family="sans-serif">IT_2021</text><text dy="20" text-anchor="middle" font-size="12" font-family="sans-serif"></text></g><g transform="translate(472.0,386.7)"><circle r="8" fill="#ffffff" stroke="#333333" stroke-width="2"/><text dy="-12" text-anchor="middle" font-size="12" font-family="sans-serif">GB_1997, IE_1994</text><text dy="20" text-anchor="middle" font-size="12" font-family="sans-serif"></text></g><g transform="translate(664.0,300.0)"><circle r="8" fill="#ffffff" stroke="#333333" stroke-width="2"/><text dy="-12" text-anchor="middle" font-size="12" font-family="sans-serif">UA_2016</text><text dy="20" text-anchor="middle" font-size="12" font-family="sans-serif"></text></g><g transform="translate(472.0,560.0)"><circle r="8" fill="#ffffff" stroke="#333333" stroke-width="2"/><text dy="-12" text-anchor="middle" font-size="12" font-family="sans-serif">CH_2024, PT_2017, UA_2022</text><text dy="20" text-anchor="middle" font-size="12" font-family="sans-serif"></text></g></svg>